<!-- <svg width="431" height="181" viewBox="0 0 431 181" fill="none" xmlns="http://www.w3.org/2000/svg">
<path d="M85.8665 90.5027L77.0643 53.3474L123.022 81.7005L85.8665 90.5027Z" fill="black"/>
<path d="M85.7892 90.9171L93.0688 128.401L48.3058 98.1968L85.7892 90.9171Z" fill="black"/>
<path d="M158.5 80.6818C158.258 78.5303 157.258 76.8636 155.5 75.6818C153.742 74.4848 151.53 73.8864 148.864 73.8864C146.955 73.8864 145.303 74.1894 143.909 74.7955C142.515 75.3864 141.432 76.2045 140.659 77.25C139.902 78.2803 139.523 79.4545 139.523 80.7727C139.523 81.8788 139.78 82.8333 140.295 83.6364C140.826 84.4394 141.515 85.1136 142.364 85.6591C143.227 86.1894 144.152 86.6364 145.136 87C146.121 87.3485 147.068 87.6364 147.977 87.8636L152.523 89.0455C154.008 89.4091 155.53 89.9015 157.091 90.5227C158.652 91.1439 160.098 91.9621 161.432 92.9773C162.765 93.9924 163.841 95.25 164.659 96.75C165.492 98.25 165.909 100.045 165.909 102.136C165.909 104.773 165.227 107.114 163.864 109.159C162.515 111.205 160.553 112.818 157.977 114C155.417 115.182 152.318 115.773 148.682 115.773C145.197 115.773 142.182 115.22 139.636 114.114C137.091 113.008 135.098 111.439 133.659 109.409C132.22 107.364 131.424 104.939 131.273 102.136H138.318C138.455 103.818 139 105.22 139.955 106.341C140.924 107.447 142.159 108.273 143.659 108.818C145.174 109.348 146.833 109.614 148.636 109.614C150.621 109.614 152.386 109.303 153.932 108.682C155.492 108.045 156.72 107.167 157.614 106.045C158.508 104.909 158.955 103.583 158.955 102.068C158.955 100.689 158.561 99.5606 157.773 98.6818C157 97.803 155.947 97.0758 154.614 96.5C153.295 95.9242 151.803 95.4167 150.136 94.9773L144.636 93.4773C140.909 92.4621 137.955 90.9697 135.773 89C133.606 87.0303 132.523 84.4242 132.523 81.1818C132.523 78.5 133.25 76.1591 134.705 74.1591C136.159 72.1591 138.129 70.6061 140.614 69.5C143.098 68.3788 145.902 67.8182 149.023 67.8182C152.174 67.8182 154.955 68.3712 157.364 69.4773C159.788 70.5833 161.697 72.1061 163.091 74.0455C164.485 75.9697 165.212 78.1818 165.273 80.6818H158.5ZM180.551 94.2727V115H173.756V80.0909H180.278V85.7727H180.71C181.513 83.9242 182.771 82.4394 184.483 81.3182C186.21 80.197 188.384 79.6364 191.006 79.6364C193.384 79.6364 195.468 80.1364 197.256 81.1364C199.044 82.1212 200.43 83.5909 201.415 85.5455C202.4 87.5 202.892 89.9167 202.892 92.7955V115H196.097V93.6136C196.097 91.0833 195.438 89.1061 194.119 87.6818C192.801 86.2424 190.991 85.5227 188.688 85.5227C187.112 85.5227 185.71 85.8636 184.483 86.5455C183.271 87.2273 182.309 88.2273 181.597 89.5455C180.9 90.8485 180.551 92.4242 180.551 94.2727ZM222.165 115.773C219.953 115.773 217.953 115.364 216.165 114.545C214.377 113.712 212.96 112.508 211.915 110.932C210.884 109.356 210.369 107.424 210.369 105.136C210.369 103.167 210.748 101.545 211.506 100.273C212.263 99 213.286 97.9924 214.574 97.25C215.862 96.5076 217.301 95.947 218.892 95.5682C220.483 95.1894 222.104 94.9015 223.756 94.7045C225.847 94.4621 227.544 94.2652 228.847 94.1136C230.15 93.947 231.097 93.6818 231.688 93.3182C232.278 92.9545 232.574 92.3636 232.574 91.5455V91.3864C232.574 89.4015 232.013 87.8636 230.892 86.7727C229.786 85.6818 228.134 85.1364 225.938 85.1364C223.65 85.1364 221.847 85.6439 220.528 86.6591C219.225 87.6591 218.324 88.7727 217.824 90L211.438 88.5455C212.195 86.4242 213.301 84.7121 214.756 83.4091C216.225 82.0909 217.915 81.1364 219.824 80.5455C221.733 79.9394 223.741 79.6364 225.847 79.6364C227.241 79.6364 228.718 79.803 230.278 80.1364C231.854 80.4545 233.324 81.0455 234.688 81.9091C236.066 82.7727 237.195 84.0076 238.074 85.6136C238.953 87.2045 239.392 89.2727 239.392 91.8182V115H232.756V110.227H232.483C232.044 111.106 231.384 111.97 230.506 112.818C229.627 113.667 228.498 114.371 227.119 114.932C225.741 115.492 224.089 115.773 222.165 115.773ZM223.642 110.318C225.521 110.318 227.127 109.947 228.46 109.205C229.809 108.462 230.831 107.492 231.528 106.295C232.241 105.083 232.597 103.788 232.597 102.409V97.9091C232.354 98.1515 231.884 98.3788 231.188 98.5909C230.506 98.7879 229.725 98.9621 228.847 99.1136C227.968 99.25 227.112 99.3788 226.278 99.5C225.445 99.6061 224.748 99.697 224.188 99.7727C222.869 99.9394 221.665 100.22 220.574 100.614C219.498 101.008 218.634 101.576 217.983 102.318C217.347 103.045 217.028 104.015 217.028 105.227C217.028 106.909 217.65 108.182 218.892 109.045C220.134 109.894 221.718 110.318 223.642 110.318ZM248.443 128.091V80.0909H255.08V85.75H255.648C256.042 85.0227 256.61 84.1818 257.352 83.2273C258.095 82.2727 259.125 81.4394 260.443 80.7273C261.761 80 263.504 79.6364 265.67 79.6364C268.489 79.6364 271.004 80.3485 273.216 81.7727C275.428 83.197 277.163 85.25 278.42 87.9318C279.693 90.6136 280.33 93.8409 280.33 97.6136C280.33 101.386 279.701 104.621 278.443 107.318C277.186 110 275.458 112.068 273.261 113.523C271.064 114.962 268.557 115.682 265.739 115.682C263.617 115.682 261.883 115.326 260.534 114.614C259.201 113.902 258.155 113.068 257.398 112.114C256.64 111.159 256.057 110.311 255.648 109.568H255.239V128.091H248.443ZM255.102 97.5455C255.102 100 255.458 102.152 256.17 104C256.883 105.848 257.913 107.295 259.261 108.341C260.61 109.371 262.261 109.886 264.216 109.886C266.246 109.886 267.943 109.348 269.307 108.273C270.67 107.182 271.701 105.705 272.398 103.841C273.11 101.977 273.466 99.8788 273.466 97.5455C273.466 95.2424 273.117 93.1742 272.42 91.3409C271.739 89.5076 270.708 88.0606 269.33 87C267.966 85.9394 266.261 85.4091 264.216 85.4091C262.246 85.4091 260.58 85.9167 259.216 86.9318C257.867 87.947 256.845 89.3636 256.148 91.1818C255.451 93 255.102 95.1212 255.102 97.5455ZM326.057 68.4545V115H319.602L295.943 80.8636H295.511V115H288.489V68.4545H294.989L318.67 102.636H319.102V68.4545H326.057ZM350.46 115.705C347.188 115.705 344.331 114.955 341.892 113.455C339.453 111.955 337.559 109.856 336.21 107.159C334.862 104.462 334.188 101.311 334.188 97.7045C334.188 94.0833 334.862 90.9167 336.21 88.2045C337.559 85.4924 339.453 83.3864 341.892 81.8864C344.331 80.3864 347.188 79.6364 350.46 79.6364C353.733 79.6364 356.589 80.3864 359.028 81.8864C361.468 83.3864 363.362 85.4924 364.71 88.2045C366.059 90.9167 366.733 94.0833 366.733 97.7045C366.733 101.311 366.059 104.462 364.71 107.159C363.362 109.856 361.468 111.955 359.028 113.455C356.589 114.955 353.733 115.705 350.46 115.705ZM350.483 110C352.604 110 354.362 109.439 355.756 108.318C357.15 107.197 358.18 105.705 358.847 103.841C359.528 101.977 359.869 99.9242 359.869 97.6818C359.869 95.4545 359.528 93.4091 358.847 91.5455C358.18 89.6667 357.15 88.1591 355.756 87.0227C354.362 85.8864 352.604 85.3182 350.483 85.3182C348.347 85.3182 346.574 85.8864 345.165 87.0227C343.771 88.1591 342.733 89.6667 342.051 91.5455C341.384 93.4091 341.051 95.4545 341.051 97.6818C341.051 99.9242 341.384 101.977 342.051 103.841C342.733 105.705 343.771 107.197 345.165 108.318C346.574 109.439 348.347 110 350.483 110ZM390.614 80.0909V85.5455H371.545V80.0909H390.614ZM376.659 71.7273H383.455V104.75C383.455 106.068 383.652 107.061 384.045 107.727C384.439 108.379 384.947 108.826 385.568 109.068C386.205 109.295 386.894 109.409 387.636 109.409C388.182 109.409 388.659 109.371 389.068 109.295C389.477 109.22 389.795 109.159 390.023 109.114L391.25 114.727C390.856 114.879 390.295 115.03 389.568 115.182C388.841 115.348 387.932 115.439 386.841 115.455C385.053 115.485 383.386 115.167 381.841 114.5C380.295 113.833 379.045 112.803 378.091 111.409C377.136 110.015 376.659 108.265 376.659 106.159V71.7273ZM412.801 115.705C409.362 115.705 406.4 114.97 403.915 113.5C401.445 112.015 399.536 109.932 398.188 107.25C396.854 104.553 396.188 101.394 396.188 97.7727C396.188 94.197 396.854 91.0455 398.188 88.3182C399.536 85.5909 401.415 83.4621 403.824 81.9318C406.248 80.4015 409.081 79.6364 412.324 79.6364C414.294 79.6364 416.203 79.9621 418.051 80.6136C419.9 81.2652 421.559 82.2879 423.028 83.6818C424.498 85.0758 425.657 86.8864 426.506 89.1136C427.354 91.3258 427.778 94.0152 427.778 97.1818V99.5909H400.028V94.5H421.119C421.119 92.7121 420.756 91.1288 420.028 89.75C419.301 88.3561 418.278 87.2576 416.96 86.4545C415.657 85.6515 414.127 85.25 412.369 85.25C410.46 85.25 408.794 85.7197 407.369 86.6591C405.96 87.5833 404.869 88.7955 404.097 90.2955C403.339 91.7803 402.96 93.3939 402.96 95.1364V99.1136C402.96 101.447 403.369 103.432 404.188 105.068C405.021 106.705 406.18 107.955 407.665 108.818C409.15 109.667 410.884 110.091 412.869 110.091C414.157 110.091 415.331 109.909 416.392 109.545C417.453 109.167 418.369 108.606 419.142 107.864C419.915 107.121 420.506 106.205 420.915 105.114L427.347 106.273C426.831 108.167 425.907 109.826 424.574 111.25C423.256 112.659 421.597 113.758 419.597 114.545C417.612 115.318 415.347 115.705 412.801 115.705Z" fill="black"/>
</svg> -->


<svg width="369" height="77" viewBox="0 0 369 77" fill="none" xmlns="http://www.w3.org/2000/svg">
<path d="M47.5 64H12.5C10.5109 64 8.60322 63.2098 7.1967 61.8033C5.79018 60.3968 5 58.4891 5 56.5V16.5C5 15.837 5.26339 15.2011 5.73223 14.7322C6.20107 14.2634 6.83696 14 7.5 14H42.5C43.163 14 43.7989 14.2634 44.2678 14.7322C44.7366 15.2011 45 15.837 45 16.5V46.5H55V56.5C55 58.4891 54.2098 60.3968 52.8033 61.8033C51.3968 63.2098 49.4891 64 47.5 64ZM45 51.5V56.5C45 57.163 45.2634 57.7989 45.7322 58.2678C46.2011 58.7366 46.837 59 47.5 59C48.163 59 48.7989 58.7366 49.2678 58.2678C49.7366 57.7989 50 57.163 50 56.5V51.5H45ZM15 26.5V31.5H35V26.5H15ZM15 36.5V41.5H35V36.5H15ZM15 46.5V51.5H27.5V46.5H15Z" fill="black"/>
<path d="M96.5 27.6818C96.2576 25.5303 95.2576 23.8636 93.5 22.6818C91.7424 21.4848 89.5303 20.8864 86.8636 20.8864C84.9545 20.8864 83.303 21.1894 81.9091 21.7955C80.5152 22.3864 79.4318 23.2045 78.6591 24.25C77.9015 25.2803 77.5227 26.4545 77.5227 27.7727C77.5227 28.8788 77.7803 29.8333 78.2955 30.6364C78.8258 31.4394 79.5152 32.1136 80.3636 32.6591C81.2273 33.1894 82.1515 33.6364 83.1364 34C84.1212 34.3485 85.0682 34.6364 85.9773 34.8636L90.5227 36.0455C92.0076 36.4091 93.5303 36.9015 95.0909 37.5227C96.6515 38.1439 98.0985 38.9621 99.4318 39.9773C100.765 40.9924 101.841 42.25 102.659 43.75C103.492 45.25 103.909 47.0455 103.909 49.1364C103.909 51.7727 103.227 54.1136 101.864 56.1591C100.515 58.2045 98.553 59.8182 95.9773 61C93.4167 62.1818 90.3182 62.7727 86.6818 62.7727C83.197 62.7727 80.1818 62.2197 77.6364 61.1136C75.0909 60.0076 73.0985 58.4394 71.6591 56.4091C70.2197 54.3636 69.4242 51.9394 69.2727 49.1364H76.3182C76.4545 50.8182 77 52.2197 77.9545 53.3409C78.9242 54.447 80.1591 55.2727 81.6591 55.8182C83.1742 56.3485 84.8333 56.6136 86.6364 56.6136C88.6212 56.6136 90.3864 56.303 91.9318 55.6818C93.4924 55.0455 94.7197 54.1667 95.6136 53.0455C96.5076 51.9091 96.9545 50.5833 96.9545 49.0682C96.9545 47.6894 96.5606 46.5606 95.7727 45.6818C95 44.803 93.947 44.0758 92.6136 43.5C91.2955 42.9242 89.803 42.4167 88.1364 41.9773L82.6364 40.4773C78.9091 39.4621 75.9545 37.9697 73.7727 36C71.6061 34.0303 70.5227 31.4242 70.5227 28.1818C70.5227 25.5 71.25 23.1591 72.7045 21.1591C74.1591 19.1591 76.1288 17.6061 78.6136 16.5C81.0985 15.3788 83.9015 14.8182 87.0227 14.8182C90.1742 14.8182 92.9545 15.3712 95.3636 16.4773C97.7879 17.5833 99.697 19.1061 101.091 21.0455C102.485 22.9697 103.212 25.1818 103.273 27.6818H96.5ZM118.551 41.2727V62H111.756V27.0909H118.278V32.7727H118.71C119.513 30.9242 120.771 29.4394 122.483 28.3182C124.21 27.197 126.384 26.6364 129.006 26.6364C131.384 26.6364 133.468 27.1364 135.256 28.1364C137.044 29.1212 138.43 30.5909 139.415 32.5455C140.4 34.5 140.892 36.9167 140.892 39.7955V62H134.097V40.6136C134.097 38.0833 133.438 36.1061 132.119 34.6818C130.801 33.2424 128.991 32.5227 126.688 32.5227C125.112 32.5227 123.71 32.8636 122.483 33.5455C121.271 34.2273 120.309 35.2273 119.597 36.5455C118.9 37.8485 118.551 39.4242 118.551 41.2727ZM160.165 62.7727C157.953 62.7727 155.953 62.3636 154.165 61.5455C152.377 60.7121 150.96 59.5076 149.915 57.9318C148.884 56.3561 148.369 54.4242 148.369 52.1364C148.369 50.1667 148.748 48.5455 149.506 47.2727C150.263 46 151.286 44.9924 152.574 44.25C153.862 43.5076 155.301 42.947 156.892 42.5682C158.483 42.1894 160.104 41.9015 161.756 41.7045C163.847 41.4621 165.544 41.2652 166.847 41.1136C168.15 40.947 169.097 40.6818 169.688 40.3182C170.278 39.9545 170.574 39.3636 170.574 38.5455V38.3864C170.574 36.4015 170.013 34.8636 168.892 33.7727C167.786 32.6818 166.134 32.1364 163.938 32.1364C161.65 32.1364 159.847 32.6439 158.528 33.6591C157.225 34.6591 156.324 35.7727 155.824 37L149.438 35.5455C150.195 33.4242 151.301 31.7121 152.756 30.4091C154.225 29.0909 155.915 28.1364 157.824 27.5455C159.733 26.9394 161.741 26.6364 163.847 26.6364C165.241 26.6364 166.718 26.803 168.278 27.1364C169.854 27.4545 171.324 28.0455 172.688 28.9091C174.066 29.7727 175.195 31.0076 176.074 32.6136C176.953 34.2045 177.392 36.2727 177.392 38.8182V62H170.756V57.2273H170.483C170.044 58.1061 169.384 58.9697 168.506 59.8182C167.627 60.6667 166.498 61.3712 165.119 61.9318C163.741 62.4924 162.089 62.7727 160.165 62.7727ZM161.642 57.3182C163.521 57.3182 165.127 56.947 166.46 56.2045C167.809 55.4621 168.831 54.4924 169.528 53.2955C170.241 52.0833 170.597 50.7879 170.597 49.4091V44.9091C170.354 45.1515 169.884 45.3788 169.188 45.5909C168.506 45.7879 167.725 45.9621 166.847 46.1136C165.968 46.25 165.112 46.3788 164.278 46.5C163.445 46.6061 162.748 46.697 162.188 46.7727C160.869 46.9394 159.665 47.2197 158.574 47.6136C157.498 48.0076 156.634 48.5758 155.983 49.3182C155.347 50.0455 155.028 51.0152 155.028 52.2273C155.028 53.9091 155.65 55.1818 156.892 56.0455C158.134 56.8939 159.718 57.3182 161.642 57.3182ZM186.443 75.0909V27.0909H193.08V32.75H193.648C194.042 32.0227 194.61 31.1818 195.352 30.2273C196.095 29.2727 197.125 28.4394 198.443 27.7273C199.761 27 201.504 26.6364 203.67 26.6364C206.489 26.6364 209.004 27.3485 211.216 28.7727C213.428 30.197 215.163 32.25 216.42 34.9318C217.693 37.6136 218.33 40.8409 218.33 44.6136C218.33 48.3864 217.701 51.6212 216.443 54.3182C215.186 57 213.458 59.0682 211.261 60.5227C209.064 61.9621 206.557 62.6818 203.739 62.6818C201.617 62.6818 199.883 62.3258 198.534 61.6136C197.201 60.9015 196.155 60.0682 195.398 59.1136C194.64 58.1591 194.057 57.3106 193.648 56.5682H193.239V75.0909H186.443ZM193.102 44.5455C193.102 47 193.458 49.1515 194.17 51C194.883 52.8485 195.913 54.2955 197.261 55.3409C198.61 56.3712 200.261 56.8864 202.216 56.8864C204.246 56.8864 205.943 56.3485 207.307 55.2727C208.67 54.1818 209.701 52.7045 210.398 50.8409C211.11 48.9773 211.466 46.8788 211.466 44.5455C211.466 42.2424 211.117 40.1742 210.42 38.3409C209.739 36.5076 208.708 35.0606 207.33 34C205.966 32.9394 204.261 32.4091 202.216 32.4091C200.246 32.4091 198.58 32.9167 197.216 33.9318C195.867 34.947 194.845 36.3636 194.148 38.1818C193.451 40 193.102 42.1212 193.102 44.5455ZM264.057 15.4545V62H257.602L233.943 27.8636H233.511V62H226.489V15.4545H232.989L256.67 49.6364H257.102V15.4545H264.057ZM288.46 62.7045C285.188 62.7045 282.331 61.9545 279.892 60.4545C277.453 58.9545 275.559 56.8561 274.21 54.1591C272.862 51.4621 272.188 48.3106 272.188 44.7045C272.188 41.0833 272.862 37.9167 274.21 35.2045C275.559 32.4924 277.453 30.3864 279.892 28.8864C282.331 27.3864 285.188 26.6364 288.46 26.6364C291.733 26.6364 294.589 27.3864 297.028 28.8864C299.468 30.3864 301.362 32.4924 302.71 35.2045C304.059 37.9167 304.733 41.0833 304.733 44.7045C304.733 48.3106 304.059 51.4621 302.71 54.1591C301.362 56.8561 299.468 58.9545 297.028 60.4545C294.589 61.9545 291.733 62.7045 288.46 62.7045ZM288.483 57C290.604 57 292.362 56.4394 293.756 55.3182C295.15 54.197 296.18 52.7045 296.847 50.8409C297.528 48.9773 297.869 46.9242 297.869 44.6818C297.869 42.4545 297.528 40.4091 296.847 38.5455C296.18 36.6667 295.15 35.1591 293.756 34.0227C292.362 32.8864 290.604 32.3182 288.483 32.3182C286.347 32.3182 284.574 32.8864 283.165 34.0227C281.771 35.1591 280.733 36.6667 280.051 38.5455C279.384 40.4091 279.051 42.4545 279.051 44.6818C279.051 46.9242 279.384 48.9773 280.051 50.8409C280.733 52.7045 281.771 54.197 283.165 55.3182C284.574 56.4394 286.347 57 288.483 57ZM328.614 27.0909V32.5455H309.545V27.0909H328.614ZM314.659 18.7273H321.455V51.75C321.455 53.0682 321.652 54.0606 322.045 54.7273C322.439 55.3788 322.947 55.8258 323.568 56.0682C324.205 56.2955 324.894 56.4091 325.636 56.4091C326.182 56.4091 326.659 56.3712 327.068 56.2955C327.477 56.2197 327.795 56.1591 328.023 56.1136L329.25 61.7273C328.856 61.8788 328.295 62.0303 327.568 62.1818C326.841 62.3485 325.932 62.4394 324.841 62.4545C323.053 62.4848 321.386 62.1667 319.841 61.5C318.295 60.8333 317.045 59.803 316.091 58.4091C315.136 57.0152 314.659 55.2652 314.659 53.1591V18.7273ZM350.801 62.7045C347.362 62.7045 344.4 61.9697 341.915 60.5C339.445 59.0152 337.536 56.9318 336.188 54.25C334.854 51.553 334.188 48.3939 334.188 44.7727C334.188 41.197 334.854 38.0455 336.188 35.3182C337.536 32.5909 339.415 30.4621 341.824 28.9318C344.248 27.4015 347.081 26.6364 350.324 26.6364C352.294 26.6364 354.203 26.9621 356.051 27.6136C357.9 28.2652 359.559 29.2879 361.028 30.6818C362.498 32.0758 363.657 33.8864 364.506 36.1136C365.354 38.3258 365.778 41.0152 365.778 44.1818V46.5909H338.028V41.5H359.119C359.119 39.7121 358.756 38.1288 358.028 36.75C357.301 35.3561 356.278 34.2576 354.96 33.4545C353.657 32.6515 352.127 32.25 350.369 32.25C348.46 32.25 346.794 32.7197 345.369 33.6591C343.96 34.5833 342.869 35.7955 342.097 37.2955C341.339 38.7803 340.96 40.3939 340.96 42.1364V46.1136C340.96 48.447 341.369 50.4318 342.188 52.0682C343.021 53.7045 344.18 54.9545 345.665 55.8182C347.15 56.6667 348.884 57.0909 350.869 57.0909C352.157 57.0909 353.331 56.9091 354.392 56.5455C355.453 56.1667 356.369 55.6061 357.142 54.8636C357.915 54.1212 358.506 53.2045 358.915 52.1136L365.347 53.2727C364.831 55.1667 363.907 56.8258 362.574 58.25C361.256 59.6591 359.597 60.7576 357.597 61.5455C355.612 62.3182 353.347 62.7045 350.801 62.7045Z" fill="black"/>
</svg>
